# xmcd CD database file generated by Grip 3.2.0
# 
# Track frame offsets:
#       182
#       17637
#       37985
#       59285
#       80177
#       99175
#       125732
#       146545
#       160137
#       177790
#       201092
#       213542
#       245482
# 
# Disc length: 3440 seconds
# 
# Revision: 1
# Processed by: cddbd v1.5.2PL0 Copyright (c) Steve Scherf et al.
# Submitted via: Grip 3.2.0
# 
DISCID=b10d6e0d
DTITLE=John ''Juke'' Logan - Juke Rhythm
DYEAR=1995
DGENRE=Blues
TTITLE0=Love Me Like That
TTITLE1=Dancin' On The Edge Of The Razorblade
TTITLE2=I Don't Know What I Want (But I Want It Now)
TTITLE3=Life On The Center Divider (Go Figure)
TTITLE4=Comb The Streets
TTITLE5=The Blues Hip Hop
TTITLE6=What's It Gonna' Be
TTITLE7=Juke's Twist Palace
TTITLE8=Lone Wolf
TTITLE9=Don't Let Your Mouth Write A Check
TTITLE10=Twice Pipes
TTITLE11=The Real Feel (JRB Theme) Parts 1 and 2
TTITLE12=Lonely Freedom
EXTD=
EXTT0=
EXTT1=
EXTT2=
EXTT3=
EXTT4=
EXTT5=
EXTT6=
EXTT7=
EXTT8=
EXTT9=
EXTT10=
EXTT11=
EXTT12=
PLAYORDER=
